<svg width="5238" height="5238" viewBox="0 0 5238 5238" fill="none" xmlns="http://www.w3.org/2000/svg">
<g clip-path="url(#clip0_5582_8085)">
<path fill-rule="evenodd" clip-rule="evenodd" d="M4886.75 3930C4433.7 4711.99 3587.78 5238 2619 5238C1650.22 5238 804.293 4711.99 351.242 3930H756.252C1168.53 4514.72 1849.16 4896.65 2619 4896.65C3388.83 4896.65 4069.47 4514.72 4481.74 3930H4886.75Z" fill="#424242"/>
<path fill-rule="evenodd" clip-rule="evenodd" d="M351.244 3930C128.025 3544.71 0.178336 3097.28 0 2620H341.352C341.561 3107.69 495.048 3559.54 756.253 3930H351.244ZM5238 2620H4896.65C4896.44 3107.69 4742.95 3559.54 4481.75 3930H4886.76C5109.97 3544.71 5237.82 3097.28 5238 2620Z" fill="#8D58B3"/>
<path fill-rule="evenodd" clip-rule="evenodd" d="M5238 2620C5238 2619.67 5238 2619.33 5238 2619C5238 2142.17 5110.57 1695.11 4887.91 1310L4483.16 1310C4743.68 1680.33 4896.65 2131.8 4896.65 2619C4896.65 2619.33 4896.65 2619.67 4896.65 2620H5238ZM350.086 1310C127.428 1695.11 0 2142.17 0 2619C0 2619.33 6.22781e-05 2619.67 0.000186823 2620H341.352C341.352 2619.67 341.352 2619.33 341.352 2619C341.352 2131.8 494.318 1680.33 754.845 1310L350.086 1310Z" fill="white"/>
<path fill-rule="evenodd" clip-rule="evenodd" d="M2619 0C1649.39 0 802.852 526.903 350.086 1310H754.844C1166.98 724.155 1848.29 341.352 2619 341.352C3389.71 341.352 4071.02 724.155 4483.15 1310H4887.91C4435.15 526.903 3588.61 0 2619 0Z" fill="#F2D478"/>
</g>
<defs>
<clipPath id="clip0_5582_8085">
<rect width="5238" height="5238" rx="2619" fill="white"/>
</clipPath>
</defs>
</svg>
