<svg width="5238" height="5238" viewBox="0 0 5238 5238" fill="none" xmlns="http://www.w3.org/2000/svg">
<g clip-path="url(#clip0_5582_8166)">
<path fill-rule="evenodd" clip-rule="evenodd" d="M4571.13 873H4081.68C3685.98 541.164 3175.83 341.352 2619 341.352C2062.18 341.352 1552.03 541.164 1156.33 873H666.883C1146.44 337.197 1843.34 0 2619 0C3394.66 0 4091.57 337.197 4571.13 873Z" fill="#F27878"/>
<path fill-rule="evenodd" clip-rule="evenodd" d="M4571.13 873C4796.58 1124.9 4974 1420.7 5088.98 1746H4723.35C4581.88 1405.38 4360.12 1106.5 4081.68 873H4571.13ZM1156.33 873H666.884C441.425 1124.9 264.007 1420.7 149.031 1746H514.661C656.13 1405.38 877.894 1106.5 1156.33 873Z" fill="#E6AB71"/>
<path fill-rule="evenodd" clip-rule="evenodd" d="M5088.98 1746C5185.49 2019.06 5238 2312.9 5238 2619H4896.65C4896.65 2309.73 4835.01 2014.86 4723.35 1746H5088.98ZM149.027 1746C53.1609 2017.23 0.705255 2308.97 0.0078125 2612.86V2619H341.352C341.352 2309.73 402.992 2014.86 514.656 1746H149.027Z" fill="#F2D478"/>
<path fill-rule="evenodd" clip-rule="evenodd" d="M5088.98 3492C5185.49 3218.94 5238.01 2925.1 5238.01 2619H4896.65C4896.65 2928.27 4835.01 3223.14 4723.35 3492H5088.98ZM0.0078125 2622.4C0.395572 2927.28 52.878 3219.96 149.032 3492H514.661C402.997 3223.14 341.357 2928.27 341.357 2619H0.0078125V2622.4Z" fill="#65CC76"/>
<path fill-rule="evenodd" clip-rule="evenodd" d="M666.884 4365C441.425 4113.1 264.007 3817.3 149.031 3492H514.661C656.13 3832.62 877.894 4131.5 1156.33 4365H666.884ZM5088.98 3492C4974 3817.3 4796.58 4113.1 4571.13 4365H4081.68C4360.12 4131.5 4581.88 3832.62 4723.35 3492H5088.98Z" fill="#6576CC"/>
<path fill-rule="evenodd" clip-rule="evenodd" d="M4571.12 4365C4091.57 4900.8 3394.66 5238 2619 5238C1843.34 5238 1146.44 4900.8 666.883 4365H1156.33C1552.03 4696.84 2062.18 4896.65 2619 4896.65C3175.83 4896.65 3685.98 4696.84 4081.68 4365H4571.12Z" fill="#8D58B3"/>
</g>
<defs>
<clipPath id="clip0_5582_8166">
<rect width="5238" height="5238" rx="2619" fill="white"/>
</clipPath>
</defs>
</svg>
