<svg width="5238" height="5238" viewBox="0 0 5238 5238" fill="none" xmlns="http://www.w3.org/2000/svg">
<g clip-path="url(#clip0_5582_8140)">
<path fill-rule="evenodd" clip-rule="evenodd" d="M2572.75 5237.6C1734.64 5223.09 992.489 4814.89 523.305 4190H969.858C1384.7 4625.35 1970.17 4896.65 2619 4896.65C3267.83 4896.65 3853.29 4625.35 4268.14 4190H4714.69C4245.5 4814.89 3503.35 5223.09 2665.24 5237.6H2572.75Z" fill="#71AFE5"/>
<path fill-rule="evenodd" clip-rule="evenodd" d="M523.007 4189.6C294.412 3885.02 130.656 3528.99 52.2266 3142L401.683 3142C495.72 3542.22 695.313 3901.75 969.479 4189.6H523.007ZM5185.77 3142C5107.34 3528.99 4943.59 3885.02 4714.99 4189.6H4268.52C4542.69 3901.75 4742.28 3542.22 4836.32 3142H5185.77Z" fill="#D46899"/>
<path fill-rule="evenodd" clip-rule="evenodd" d="M5185.65 3142.6C5219.98 2973.42 5238 2798.31 5238 2619C5238 2439.55 5219.95 2264.31 5185.57 2095H4836.08C4875.69 2263.24 4896.65 2438.67 4896.65 2619C4896.65 2799.19 4875.72 2974.48 4836.17 3142.6H5185.65ZM0 2621.13C0.142302 2799.7 18.1556 2974.09 52.348 3142.6H401.824C362.274 2974.48 341.351 2799.19 341.351 2619C341.351 2438.67 362.307 2263.24 401.918 2095H52.4292C18.1841 2263.64 0.142414 2438.16 0 2616.87V2621.13Z" fill="white"/>
<path fill-rule="evenodd" clip-rule="evenodd" d="M4713.94 1047C4942.81 1351.52 5106.82 1707.55 5185.49 2094.6H4835.98C4741.66 1694.29 4541.71 1334.75 4267.18 1047H4713.94ZM970.811 1047H524.055C295.187 1351.52 131.169 1707.55 52.5078 2094.6H402.009C496.336 1694.29 696.278 1334.75 970.811 1047Z" fill="#D46899"/>
<path fill-rule="evenodd" clip-rule="evenodd" d="M4713.94 1047H4267.18C3852.39 612.237 3267.33 341.352 2619 341.352C1970.66 341.352 1385.6 612.237 970.81 1047H524.055C1001.9 411.214 1762.42 0 2619 0C3475.57 0 4236.1 411.214 4713.94 1047Z" fill="#71AFE5"/>
</g>
<defs>
<clipPath id="clip0_5582_8140">
<rect width="5238" height="5238" rx="2619" fill="white"/>
</clipPath>
</defs>
</svg>
