<svg width="5238" height="5238" viewBox="0 0 5238 5238" fill="none" xmlns="http://www.w3.org/2000/svg">
<g clip-path="url(#clip0_5559_8134)">
<rect width="5238" height="5238" fill="url(#paint0_linear_5559_8134)"/>
<g filter="url(#filter0_di_5559_8134)">
<path d="M1940.06 2682.17L1916.06 2689.17L1928.08 2730.35L1957.99 2699.6L1940.06 2682.17ZM1799.1 2199.11L1823.1 2192.11C1822.44 2189.85 1821.46 2187.69 1820.2 2185.7L1799.1 2199.11ZM1553.37 1812.32L1574.47 1798.92C1572.43 1795.7 1569.69 1793 1566.44 1791.01L1553.37 1812.32ZM1071.02 1516.54L1074.97 1491.85C1063.19 1489.97 1051.71 1496.68 1047.58 1507.87C1043.44 1519.06 1047.78 1531.62 1057.95 1537.85L1071.02 1516.54ZM1840.05 1639.4L1860.51 1625.03C1856.62 1619.5 1850.67 1615.78 1843.99 1614.72L1840.05 1639.4ZM2167.68 1147.95L2148.52 1131.9C2146.39 1134.44 2144.79 1137.38 2143.81 1140.55L2167.68 1147.95ZM2449.81 811.22L2474.47 815.358C2476.33 804.233 2470.52 793.236 2460.28 788.515C2450.03 783.794 2437.89 786.518 2430.65 795.164L2449.81 811.22ZM2340.6 1461.94L2364.56 1469.06C2364.86 1468.08 2365.09 1467.08 2365.26 1466.07L2340.6 1461.94ZM2739.05 1315.15L2719.2 1299.94C2717.59 1302.04 2716.33 1304.39 2715.45 1306.88L2739.05 1315.15ZM3311.21 568.538L3334.81 576.795C3338.87 565.201 3333.9 552.379 3323.09 546.542C3312.29 540.705 3298.84 543.582 3291.37 553.331L3311.21 568.538ZM3916.43 959.857L3936.64 974.571C3943.98 964.479 3942.76 950.515 3933.77 941.854C3924.78 933.194 3910.78 932.49 3900.97 940.206L3916.43 959.857ZM3143.47 2021.64L3123.26 2006.93C3121.75 2009 3120.57 2011.3 3119.76 2013.74L3143.47 2021.64ZM2865.81 2854.76L2842.09 2846.86L2885.71 2869.89L2865.81 2854.76ZM3304.23 2278.06L3287.04 2259.91C3286.06 2260.84 3285.15 2261.85 3284.33 2262.93L3304.23 2278.06ZM4165.97 1461.94L4183.16 1480.09C4192.29 1471.45 4193.58 1457.37 4186.18 1447.22C4178.78 1437.06 4164.99 1433.97 4153.97 1440.01L4165.97 1461.94ZM2431.17 2177.07L2449.1 2194.5L2431.17 2177.07ZM1964.06 2675.17L1823.1 2192.11L1775.1 2206.11L1916.06 2689.17L1964.06 2675.17ZM1820.2 2185.7L1574.47 1798.92L1532.27 1825.73L1778 2212.52L1820.2 2185.7ZM1566.44 1791.01L1084.09 1495.23L1057.95 1537.85L1540.3 1833.63L1566.44 1791.01ZM1067.08 1541.23L1836.11 1664.09L1843.99 1614.72L1074.97 1491.85L1067.08 1541.23ZM1819.6 1653.78L1941.1 1826.69L1982.01 1797.95L1860.51 1625.03L1819.6 1653.78ZM1936.56 1811.7L1915.07 2681.55L1965.05 2682.79L1986.55 1812.94L1936.56 1811.7ZM1985.43 1819.73L2191.56 1155.36L2143.81 1140.55L1937.68 1804.91L1985.43 1819.73ZM2186.85 1164.01L2468.98 827.275L2430.65 795.164L2148.52 1131.9L2186.85 1164.01ZM2425.16 807.082L2315.95 1457.8L2365.26 1466.07L2474.47 815.358L2425.16 807.082ZM2316.64 1454.81L2072.99 2274.36L2120.91 2288.61L2364.56 1469.06L2316.64 1454.81ZM2073.67 2272.37L1916.78 2673.05L1963.34 2691.28L2120.23 2290.6L2073.67 2272.37ZM2418.97 2154.91L2077.33 2756.21L2120.8 2780.91L2462.45 2179.61L2418.97 2154.91ZM2464.31 2175.52L2762.64 1323.41L2715.45 1306.88L2417.12 2159L2464.31 2175.52ZM2758.89 1330.35L3331.06 583.745L3291.37 553.331L2719.2 1299.94L2758.89 1330.35ZM3287.62 560.282L2868.96 1756.8L2916.15 1773.32L3334.81 576.795L3287.62 560.282ZM2875.93 1746.39L2424.09 2148.58L2457.33 2185.93L2909.18 1783.73L2875.93 1746.39ZM2456.17 2802.52L2465.71 2167.63L2415.71 2166.88L2406.17 2801.77L2456.17 2802.52ZM2626.44 2831.79L2465.02 2161.4L2416.41 2173.11L2577.82 2843.5L2626.44 2831.79ZM2867.81 1761.48L2721.34 2773.58L2770.82 2780.74L2917.3 1768.64L2867.81 1761.48ZM2908.01 1784.71L3931.88 979.509L3900.97 940.206L2877.1 1745.41L2908.01 1784.71ZM3896.21 945.144L3123.26 2006.93L3163.69 2036.36L3936.64 974.571L3896.21 945.144ZM3119.76 2013.74L2842.09 2846.86L2889.53 2862.67L3167.19 2029.55L3119.76 2013.74ZM2885.71 2869.89L3324.14 2293.19L3284.33 2262.93L2845.91 2839.63L2885.71 2869.89ZM3321.43 2296.21L4183.16 1480.09L4148.78 1443.78L3287.04 2259.91L3321.43 2296.21ZM4153.97 1440.01L3131.47 1999.71L3155.48 2043.57L4177.98 1483.87L4153.97 1440.01ZM1957.99 2699.6L2449.1 2194.5L2413.25 2159.64L1922.14 2664.74L1957.99 2699.6ZM2449.1 2194.5L2458.64 2184.68L2422.79 2149.83L2413.25 2159.64L2449.1 2194.5ZM2104.41 2305.35L2438.63 2200.93L2423.72 2153.21L2089.5 2257.62L2104.41 2305.35Z" fill="white"/>
<path d="M1799.08 2199.57L1823.08 2192.59C1822.42 2190.32 1821.44 2188.16 1820.18 2186.17L1799.08 2199.57ZM1553.35 1812.78L1574.45 1799.38C1572.41 1796.16 1569.66 1793.46 1566.42 1791.47L1553.35 1812.78ZM1071 1517L1074.94 1492.32C1063.16 1490.43 1051.69 1497.14 1047.55 1508.33C1043.41 1519.52 1047.76 1532.08 1057.93 1538.32L1071 1517ZM1840.03 1639.87L1860.48 1625.49C1856.6 1619.96 1850.64 1616.24 1843.97 1615.18L1840.03 1639.87ZM2167.66 1148.42L2148.5 1132.36C2146.37 1134.9 2144.77 1137.84 2143.78 1141.01L2167.66 1148.42ZM2449.79 811.682L2474.44 815.82C2476.31 804.695 2470.5 793.698 2460.25 788.977C2450.01 784.256 2437.87 786.98 2430.63 795.626L2449.79 811.682ZM2340.58 1462.4L2364.54 1469.52C2364.83 1468.54 2365.06 1467.54 2365.23 1466.54L2340.58 1462.4ZM2739.02 1315.61L2719.18 1300.4C2717.57 1302.5 2716.3 1304.85 2715.43 1307.35L2739.02 1315.61ZM3311.19 569L3334.79 577.257C3338.84 565.663 3333.88 552.841 3323.07 547.004C3312.26 541.166 3298.82 544.044 3291.35 553.793L3311.19 569ZM3916.4 960.319L3936.61 975.033C3943.96 964.941 3942.74 950.977 3933.75 942.316C3924.76 933.655 3910.76 932.952 3900.95 940.668L3916.4 960.319ZM3143.45 2022.1L3123.24 2007.39C3121.72 2009.48 3120.53 2011.8 3119.71 2014.26L3143.45 2022.1ZM3304.21 2278.52L3287.02 2260.37C3285.97 2261.37 3285 2262.45 3284.14 2263.62L3304.21 2278.52ZM4165.95 1462.4L4183.14 1480.55C4192.27 1471.91 4193.56 1457.84 4186.16 1447.68C4178.76 1437.52 4164.97 1434.43 4153.95 1440.47L4165.95 1462.4ZM1602.7 3111.73L1584.07 3095.06L1579.04 3100.68L1577.96 3108.15L1602.7 3111.73ZM1524.34 3653.01L1499.6 3649.43L1499.09 3652.99L1499.6 3656.56L1524.34 3653.01ZM1625.61 4358.23L1600.86 4361.79L1601.83 4368.52L1606.08 4373.84L1625.61 4358.23ZM1875.15 4670.46L1855.62 4686.07L1863.12 4695.46H1875.15V4670.46ZM2738.03 4670.46V4695.46H2748.58L2755.94 4687.9L2738.03 4670.46ZM3094.87 4304.11L3112.78 4321.56L3118.84 4315.33L3119.74 4306.68L3094.87 4304.11ZM3165.29 3623.28L3190.15 3625.85L3190.56 3621.93L3189.74 3618.07L3165.29 3623.28ZM3033.35 3003.9L3057.8 2998.69L3055.85 2989.57L3048.41 2983.95L3033.35 3003.9ZM2657.53 3399.85L2665.26 3376.07L2662.69 3375.24L2660 3374.97L2657.53 3399.85ZM1524.73 3655.7L1499.98 3659.25H1499.98L1524.73 3655.7ZM2606.84 3858.54L2611.89 3834.05L2606.84 3858.54ZM1975.1 2715.37L1823.08 2192.59L1775.07 2206.55L1927.09 2729.33L1975.1 2715.37ZM1820.18 2186.17L1574.45 1799.38L1532.25 1826.19L1777.97 2212.98L1820.18 2186.17ZM1566.42 1791.47L1084.07 1495.69L1057.93 1538.32L1540.28 1834.1L1566.42 1791.47ZM1067.06 1541.69L1836.08 1664.55L1843.97 1615.18L1074.94 1492.32L1067.06 1541.69ZM1819.57 1654.24L1941.08 1827.16L1981.99 1798.41L1860.48 1625.49L1819.57 1654.24ZM1936.53 1812.5L1926.1 2722.06L1976.09 2722.64L1986.53 1813.07L1936.53 1812.5ZM1985.41 1820.19L2191.54 1155.82L2143.78 1141.01L1937.65 1805.37L1985.41 1820.19ZM2186.82 1164.47L2468.95 827.737L2430.63 795.626L2148.5 1132.36L2186.82 1164.47ZM2425.13 807.544L2315.92 1458.26L2365.23 1466.54L2474.44 815.82L2425.13 807.544ZM2316.61 1455.27L2072.96 2274.82L2120.89 2289.07L2364.54 1469.52L2316.61 1455.27ZM2073.19 2274.09L1927.36 2714.49L1974.83 2730.21L2120.66 2289.8L2073.19 2274.09ZM2418.94 2155.38L2070.28 2770.08L2113.77 2794.75L2462.43 2180.05L2418.94 2155.38ZM2464.28 2175.98L2762.62 1323.87L2715.43 1307.35L2417.09 2159.46L2464.28 2175.98ZM2758.87 1330.81L3331.03 584.207L3291.35 553.793L2719.18 1300.4L2758.87 1330.81ZM3287.59 560.743L2868.93 1757.27L2916.13 1773.78L3334.79 577.257L3287.59 560.743ZM2875.91 1746.85L2424.07 2149.05L2457.31 2186.39L2909.15 1784.2L2875.91 1746.85ZM2451.3 2815.78L2465.68 2168.27L2415.69 2167.16L2401.31 2814.67L2451.3 2815.78ZM2622.95 2852.72L2465.06 2162.15L2416.32 2173.29L2574.2 2863.86L2622.95 2852.72ZM2867.81 1761.82L2715.36 2778.71L2764.8 2786.12L2917.25 1769.23L2867.81 1761.82ZM2907.98 1785.17L3931.86 979.97L3900.95 940.668L2877.08 1745.87L2907.98 1785.17ZM3896.19 945.606L3123.24 2007.39L3163.66 2036.82L3936.61 975.033L3896.19 945.606ZM3119.71 2014.26L2838.06 2866.5L2885.54 2882.18L3167.19 2029.95L3119.71 2014.26ZM2881.87 2889.24L3324.28 2293.43L3284.14 2263.62L2841.73 2859.44L2881.87 2889.24ZM3321.4 2296.67L4183.14 1480.55L4148.76 1444.25L3287.02 2260.37L3321.4 2296.67ZM4153.95 1440.47L3131.45 2000.17L3155.46 2044.03L4177.95 1484.33L4153.95 1440.47ZM1969.85 2738.88L2449.91 2194.06L2412.39 2161L1932.34 2705.82L1969.85 2738.88ZM2449.07 2194.96L2458.61 2185.15L2422.76 2150.29L2413.22 2160.1L2449.07 2194.96ZM2104.38 2305.81L2438.6 2201.39L2423.69 2153.67L2089.47 2258.08L2104.38 2305.81ZM1932.46 2705.68L1584.07 3095.06L1621.33 3128.4L1969.73 2739.02L1932.46 2705.68ZM1577.96 3108.15L1499.6 3649.43L1549.09 3656.59L1627.45 3115.31L1577.96 3108.15ZM1606.08 4373.84L1855.62 4686.07L1894.68 4654.85L1645.14 4342.62L1606.08 4373.84ZM1875.15 4695.46H2738.03V4645.46H1875.15V4695.46ZM2755.94 4687.9L3112.78 4321.56L3076.96 4286.67L2720.12 4653.02L2755.94 4687.9ZM3119.74 4306.68L3190.15 3625.85L3140.42 3620.71L3070 4301.54L3119.74 4306.68ZM2728.27 2760.38L2586.76 2836.26L2610.39 2880.32L2751.89 2804.44L2728.27 2760.38ZM2604.64 2834.04L2432.37 2790.97L2420.24 2839.48L2592.51 2882.55L2604.64 2834.04ZM2415.73 2792.57L2231.16 2878.7L2252.31 2924.01L2436.88 2837.88L2415.73 2792.57ZM2257.29 2881.78L2107.58 2762.84L2076.47 2801.99L2226.18 2920.93L2257.29 2881.78ZM2101.83 2759.41L1960.9 2699.35L1941.29 2745.35L2082.22 2805.41L2101.83 2759.41ZM1926.32 2725.72L1972.91 3068.79L2022.46 3062.06L1975.87 2718.99L1926.32 2725.72ZM2021.4 3073.33L2115.74 2790.32L2068.31 2774.51L1973.97 3057.52L2021.4 3073.33ZM2227.79 2880.61L1983.74 3044.68L2011.64 3086.17L2255.68 2922.11L2227.79 2880.61ZM2434.21 3126.45L2618.78 2873.01L2578.37 2843.57L2393.79 3097.01L2434.21 3126.45ZM2401.33 2814.19L2389.02 3110.7L2438.98 3112.77L2451.28 2816.26L2401.33 2814.19ZM1986.35 3087.7L2216.04 3204.6L2238.72 3160.04L2009.03 3043.14L1986.35 3087.7ZM2249.36 3194.23L2448.29 2827.14L2404.33 2803.31L2205.4 3170.41L2249.36 3194.23ZM2252.35 3183.6L2266.7 2902.63L2216.77 2900.08L2202.41 3181.04L2252.35 3183.6ZM2405.16 3088.35L2218.53 3158.94L2236.22 3205.7L2422.85 3135.12L2405.16 3088.35ZM2697.36 3090.02L3037.79 3028.5L3028.9 2979.3L2688.47 3040.82L2697.36 3090.02ZM2597.05 2883.25L2860.28 2899.29L2863.32 2849.39L2600.1 2833.34L2597.05 2883.25ZM2843.07 2857.78L2674.18 3048.87L2711.64 3081.98L2880.53 2890.9L2843.07 2857.78ZM2575.82 2868.65L2670.16 3075.79L2715.66 3055.06L2621.33 2847.93L2575.82 2868.65ZM2418.1 3136.39L2697.01 3090.09L2688.82 3040.76L2409.91 3087.07L2418.1 3136.39ZM1994.78 3040.59L1599.79 3086.9L1605.61 3136.56L2000.6 3090.25L1994.78 3040.59ZM1982.68 3045.43L1692.86 3262.86L1722.86 3302.85L2012.69 3085.42L1982.68 3045.43ZM1685.46 3271.75L1501.95 3641.9L1546.74 3664.11L1730.26 3293.96L1685.46 3271.75ZM1581.4 3124.82L1686.56 3295.94L1729.16 3269.77L1624 3098.64L1581.4 3124.82ZM3189.74 3618.07L3149.38 3428.64L3100.48 3439.05L3140.83 3628.49L3189.74 3618.07ZM3149.38 3428.64L3057.8 2998.69L3008.89 3009.11L3100.48 3439.05L3149.38 3428.64ZM2692.36 3327.12L2870.96 3175.02L2838.54 3136.96L2659.95 3289.05L2692.36 3327.12ZM2870.96 3175.02L3049.55 3022.93L3017.14 2984.87L2838.54 3136.96L2870.96 3175.02ZM2866.96 3134.17L2705.12 3043.61L2680.7 3087.24L2842.54 3177.81L2866.96 3134.17ZM2667.97 3063.7L2651.21 3306.36L2701.1 3309.8L2717.85 3067.15L2667.97 3063.7ZM1712.61 3307.4L1972.37 3257.13L1962.87 3208.04L1703.11 3258.31L1712.61 3307.4ZM1972.37 3257.13L2232.13 3206.86L2222.63 3157.77L1962.87 3208.04L1972.37 3257.13ZM2836.83 3173.42L3107.01 3451.27L3142.86 3416.42L2872.67 3138.56L2836.83 3173.42ZM2209.39 3199.68L2396.02 3392.99L2431.99 3358.26L2245.36 3164.96L2209.39 3199.68ZM2420.24 3399.83L2682.39 3332.29L2669.92 3283.87L2407.76 3351.41L2420.24 3399.83ZM2439 3375.62V3111.73H2389V3375.62H2439ZM2674.32 3048.71L2395.41 3358.91L2432.59 3392.34L2711.5 3082.14L2674.32 3048.71ZM2659.99 3327.16L2847.32 3485.89L2879.65 3447.75L2692.32 3289.01L2659.99 3327.16ZM2866.61 3491.62L3128.06 3458.65L3121.8 3409.04L2860.36 3442.02L2866.61 3491.62ZM2888.48 3466.12L2879.74 3155.29L2829.76 3156.69L2838.49 3467.52L2888.48 3466.12ZM2649.8 3423.62L2855.75 3490.59L2871.22 3443.04L2665.26 3376.07L2649.8 3423.62ZM1952.53 3252.52L2150.5 3402.3L2180.66 3362.43L1982.7 3212.65L1952.53 3252.52ZM2166.26 3407.36L2414.68 3400.61L2413.32 3350.63L2164.9 3357.38L2166.26 3407.36ZM1835.24 3494.65L1514.62 3629.97L1534.06 3676.04L1854.68 3540.72L1835.24 3494.65ZM1686.27 3295.46L1823.37 3530.29L1866.55 3505.08L1729.45 3270.25L1686.27 3295.46ZM1944.65 3222.71L1822 3507.81L1867.93 3527.57L1990.58 3242.47L1944.65 3222.71ZM1992.22 3237.01L2022.29 3069.85L1973.08 3061L1943.01 3228.16L1992.22 3237.01ZM2149 3363.66L2020.07 3477.91L2053.23 3515.33L2182.16 3401.08L2149 3363.66ZM2033.92 3471.77L1842.23 3492.84L1847.69 3542.54L2039.38 3521.47L2033.92 3471.77ZM2028.41 3520.23L2243.18 3595.19L2259.66 3547.99L2044.89 3473.02L2028.41 3520.23ZM2274.19 3561.26L2188.35 3372.04L2142.81 3392.69L2228.65 3581.92L2274.19 3561.26ZM2394.76 3359.66L2232.18 3555.63L2270.66 3587.55L2433.24 3391.59L2394.76 3359.66ZM2247.3 3596.25L2516.77 3641.33L2525.02 3592.02L2255.55 3546.93L2247.3 3596.25ZM2543.75 3606.54L2436.86 3365.49L2391.15 3385.76L2498.05 3626.81L2543.75 3606.54ZM2411.53 3400.5L2649.16 3424.14L2654.11 3374.39L2416.48 3350.75L2411.53 3400.5ZM2649.16 3424.14L2655.05 3424.73L2660 3374.97L2654.11 3374.39L2649.16 3424.14ZM2630.21 3386.38L2499.47 3603.79L2542.32 3629.56L2673.06 3412.15L2630.21 3386.38ZM2853.47 3443.91L2510.88 3593.77L2530.92 3639.58L2873.5 3489.72L2853.47 3443.91ZM2517.82 3641.48L3035.5 3705.81L3041.66 3656.19L2523.98 3591.86L2517.82 3641.48ZM3057.94 3665.18L2882.84 3451L2844.13 3482.64L3019.23 3696.83L3057.94 3665.18ZM3101.33 3425.6L3014.98 3672.76L3062.18 3689.25L3148.53 3442.09L3101.33 3425.6ZM3048.95 3703.75L3175.65 3646.03L3154.92 3600.53L3028.22 3658.25L3048.95 3703.75ZM1823.01 3505.73L1666.19 3793.65L1710.1 3817.57L1866.92 3529.64L1823.01 3505.73ZM1704.74 3824.32L2053.23 3515.33L2020.06 3477.92L1671.56 3786.91L1704.74 3824.32ZM1705.19 3787.32L1541.38 3634.72L1507.3 3671.3L1671.11 3823.9L1705.19 3787.32ZM1692.69 3830.2L2074.11 3759.79L2065.04 3710.62L1683.61 3781.03L1692.69 3830.2ZM2094.34 3731.78L2061.41 3493.2L2011.88 3500.04L2044.81 3738.62L2094.34 3731.78ZM2086.29 3753.79L2268.14 3590.18L2234.7 3553.01L2052.85 3716.62L2086.29 3753.79ZM1650.15 4363L1702.05 4095.59L1652.96 4086.07L1601.06 4353.47L1650.15 4363ZM1702.05 4095.56L1702.06 4095.52L1652.96 4086.06L1652.96 4086.1L1702.05 4095.56ZM1702.49 4091.72L1713.13 3806.54L1663.17 3804.68L1652.53 4089.86L1702.49 4091.72ZM1499.6 3656.56L1499.98 3659.25L1549.48 3652.14L1549.09 3649.45L1499.6 3656.56ZM1499.98 3659.25L1600.86 4361.79L1650.35 4354.68L1549.48 3652.14L1499.98 3659.25ZM1701.1 4082.51L1548.32 3647.41L1501.14 3663.98L1653.92 4099.08L1701.1 4082.51ZM1654.84 4080.26C1654.36 4081.3 1653.48 4083.35 1652.95 4086.11C1652.49 4088.5 1651.71 4094.37 1654.67 4101.01L1700.34 4080.66C1703.29 4087.28 1702.51 4093.14 1702.06 4095.53C1701.53 4098.26 1700.66 4100.31 1700.19 4101.32L1654.84 4080.26ZM1654.7 4101.08C1660.07 4113.01 1671.28 4115.63 1676.63 4115.82C1681.26 4115.99 1684.75 4114.79 1685.71 4114.46L1669.39 4067.2C1670.32 4066.88 1673.79 4065.69 1678.41 4065.85C1680.93 4065.94 1684.99 4066.47 1689.35 4068.82C1694.13 4071.39 1698.02 4075.49 1700.31 4080.58L1654.7 4101.08ZM1685.63 4114.49C1687.66 4113.8 1689.14 4112.99 1689.57 4112.76L1665.68 4068.84C1665.97 4068.68 1666.41 4068.44 1666.97 4068.19C1667.49 4067.94 1668.36 4067.55 1669.48 4067.17L1685.63 4114.49ZM1689.59 4112.75C1691.72 4111.59 1693.51 4110.16 1693.61 4110.09L1663.22 4070.39C1663.16 4070.43 1663.27 4070.35 1663.49 4070.19C1663.6 4070.11 1663.82 4069.96 1664.11 4069.77C1664.36 4069.61 1664.91 4069.26 1665.66 4068.85L1689.59 4112.75ZM1693.61 4110.09C1703.63 4102.42 1779.17 4036.04 1862.54 3961.14C1946.35 3885.85 2040.16 3800.09 2087.27 3752.86L2051.87 3717.55C2005.89 3763.64 1913.12 3848.5 1829.13 3923.95C1744.71 3999.78 1671.22 4064.26 1663.22 4070.39L1693.61 4110.09ZM2373.23 3795.89L2274.45 3561.87L2228.39 3581.31L2327.16 3815.33L2373.23 3795.89ZM2502.35 3599.91L2331.65 3788.85L2368.75 3822.37L2539.45 3633.43L2502.35 3599.91ZM2063.49 3759.45L2344.11 3829.86L2356.28 3781.36L2075.66 3710.95L2063.49 3759.45ZM2354.65 3830.21L3043.03 3705.6L3034.13 3656.4L2345.74 3781.01L2354.65 3830.21ZM2883.39 3926.59L3058.49 3696.13L3018.68 3665.88L2843.58 3896.34L2883.39 3926.59ZM3116.41 4291.42L2885.02 3898.78L2841.95 3924.16L3073.33 4316.8L3116.41 4291.42ZM3144 3610.17L2994.51 3852.88L3037.08 3879.11L3186.57 3636.39L3144 3610.17ZM3008.64 3842.04L2856.33 3887.51L2870.64 3935.42L3022.94 3889.95L3008.64 3842.04ZM2991.19 3870.44L3070.27 4308.55L3119.47 4299.67L3040.39 3861.55L2991.19 3870.44ZM1690.58 4112.1L1691.48 4111.55L1665.35 4068.93L1664.44 4069.48L1690.58 4112.1ZM1691.48 4111.55L2104.42 3858.33L2078.29 3815.7L1665.35 4068.93L1691.48 4111.55ZM2094.37 3861.83L2353.21 3830.43L2347.18 3780.79L2088.34 3812.2L2094.37 3861.83ZM2115.8 3831.79L2094.02 3729.97L2045.13 3740.43L2066.91 3842.25L2115.8 3831.79ZM2068.82 3826.19L1939.15 4096.18L1984.22 4117.83L2113.89 3847.84L2068.82 3826.19ZM1977 4126.76L2365.52 3825.36L2334.87 3785.86L1946.36 4087.25L1977 4126.76ZM1951.35 4084.24L1764.94 4168.83L1785.61 4214.36L1972.01 4129.77L1951.35 4084.24ZM1793.22 4174.19L1695.5 4073.43L1659.6 4108.24L1757.33 4209L1793.22 4174.19ZM1695.5 4073.43L1695.46 4073.39L1659.56 4108.19L1659.6 4108.23L1695.5 4073.43ZM1963.1 4082.04L1679.05 4065.84L1676.2 4115.76L1960.26 4131.96L1963.1 4082.04ZM1679.05 4065.84L1678.94 4065.83L1676.08 4115.75L1676.19 4115.76L1679.05 4065.84ZM1756.67 4174.89L1607.01 4341.53L1644.21 4374.94L1793.87 4208.3L1756.67 4174.89ZM1750.8 4196.7L1850.67 4675.56L1899.62 4665.36L1799.75 4186.49L1750.8 4196.7ZM3048.41 2983.95L2876.87 2854.39L2846.73 2894.29L3018.28 3023.85L3048.41 2983.95ZM2876.87 2854.39L2755.15 2762.46L2725.01 2802.36L2846.73 2894.29L2876.87 2854.39ZM2345.15 3830.1L2601.79 3883.02L2611.89 3834.05L2355.25 3781.13L2345.15 3830.1ZM2601.79 3883.02L2858.44 3935.95L2868.53 3886.98L2611.89 3834.05L2601.79 3883.02ZM2443.17 4046.61L2374.28 3798.91L2326.11 3812.31L2395 4060.01L2443.17 4046.61ZM2588.84 3841.19L2401.09 4035.96L2437.08 4070.66L2624.84 3875.89L2588.84 3841.19ZM2855.88 3887.65L2411.48 4029.49L2426.69 4077.12L2871.09 3935.28L2855.88 3887.65ZM2409.6 4076.44L2827.99 4248.08L2846.97 4201.82L2428.57 4030.18L2409.6 4076.44ZM2830.13 4248.84L3087.52 4328.01L3102.22 4280.22L2844.83 4201.05L2830.13 4248.84ZM2762.43 4675.91L2861.88 4230.39L2813.08 4219.5L2713.63 4665.01L2762.43 4675.91ZM2759.94 4658.42L2628.75 4419.65L2584.93 4443.73L2716.12 4682.5L2759.94 4658.42ZM2629.23 4420.58L2441.48 4042.2L2396.69 4064.42L2584.45 4442.81L2629.23 4420.58ZM2820.79 4206.33L2590.15 4413.08L2623.53 4450.31L2854.17 4243.56L2820.79 4206.33ZM2862.39 4227.01L2888.4 3913.53L2838.57 3909.4L2812.56 4222.88L2862.39 4227.01ZM2328.28 3793.58L2054.47 4292.08L2098.29 4316.15L2372.11 3817.65L2328.28 3793.58ZM2054.47 4292.08L1853.24 4658.42L1897.06 4682.5L2098.29 4316.15L2054.47 4292.08ZM1940.07 4119.58L2054.77 4316.69L2097.98 4291.54L1983.29 4094.43L1940.07 4119.58ZM1766.52 4215.01L2067.63 4327.53L2085.13 4280.69L1784.03 4168.18L1766.52 4215.01ZM2091.14 4324.29L2433.85 4073.48L2404.32 4033.13L2061.61 4283.94L2091.14 4324.29ZM2398.54 4039.07L2162.21 4380.08L2203.31 4408.56L2439.63 4067.55L2398.54 4039.07ZM2166.06 4375.72L1858.45 4651.86L1891.85 4689.06L2199.46 4412.93L2166.06 4375.72ZM2180.56 4419.23L2604.65 4456.6L2609.03 4406.79L2184.95 4369.42L2180.56 4419.23ZM2600.71 4407.46L2234.87 4499.95L2247.12 4548.43L2612.97 4455.93L2600.71 4407.46ZM2231.71 4500.97L1865.87 4647.25L1884.43 4693.67L2250.28 4547.4L2231.71 4500.97ZM2233.94 4548.17L2730.97 4694.44L2745.09 4646.48L2248.05 4500.21L2233.94 4548.17ZM2263.81 4513.96L2205.57 4384.1L2159.95 4404.55L2218.18 4534.42L2263.81 4513.96ZM2060.21 4323.18L2166.59 4413.39L2198.93 4375.26L2092.55 4285.04L2060.21 4323.18Z" fill="white"/>
</g>
</g>
<defs>
<filter id="filter0_di_5559_8134" x="992.29" y="489.826" width="3359.82" height="4366.76" filterUnits="userSpaceOnUse" color-interpolation-filters="sRGB">
<feFlood flood-opacity="0" result="BackgroundImageFix"/>
<feColorMatrix in="SourceAlpha" type="matrix" values="0 0 0 0 0 0 0 0 0 0 0 0 0 0 0 0 0 0 127 0" result="hardAlpha"/>
<feOffset dx="53.71" dy="53.71"/>
<feGaussianBlur stdDeviation="53.71"/>
<feColorMatrix type="matrix" values="0 0 0 0 0.360784 0 0 0 0 0.360784 0 0 0 0 0.360784 0 0 0 0.2 0"/>
<feBlend mode="normal" in2="BackgroundImageFix" result="effect1_dropShadow_5559_8134"/>
<feBlend mode="normal" in="SourceGraphic" in2="effect1_dropShadow_5559_8134" result="shape"/>
<feColorMatrix in="SourceAlpha" type="matrix" values="0 0 0 0 0 0 0 0 0 0 0 0 0 0 0 0 0 0 127 0" result="hardAlpha"/>
<feOffset dx="26.86" dy="26.86"/>
<feGaussianBlur stdDeviation="26.855"/>
<feComposite in2="hardAlpha" operator="arithmetic" k2="-1" k3="1"/>
<feColorMatrix type="matrix" values="0 0 0 0 0.976471 0 0 0 0 0.976471 0 0 0 0 0.976471 0 0 0 0.25 0"/>
<feBlend mode="normal" in2="shape" result="effect2_innerShadow_5559_8134"/>
</filter>
<linearGradient id="paint0_linear_5559_8134" x1="5238" y1="0" x2="-0.000312209" y2="5238" gradientUnits="userSpaceOnUse">
<stop offset="0.181887" stop-color="#6576CC"/>
<stop offset="0.816473" stop-color="#8D58B3"/>
</linearGradient>
<clipPath id="clip0_5559_8134">
<rect width="5238" height="5238" fill="white"/>
</clipPath>
</defs>
</svg>
