<svg width="5238" height="5238" viewBox="0 0 5238 5238" fill="none" xmlns="http://www.w3.org/2000/svg">
<g clip-path="url(#clip0_5559_8113)">
<rect width="5238" height="5238" rx="2619" fill="url(#paint0_linear_5559_8113)"/>
<path d="M1800.08 2198.57L1824.08 2191.59C1823.42 2189.32 1822.44 2187.16 1821.18 2185.17L1800.08 2198.57ZM1554.35 1811.78L1575.45 1798.38C1573.41 1795.16 1570.66 1792.46 1567.42 1790.47L1554.35 1811.78ZM1072 1516L1075.94 1491.32C1064.16 1489.43 1052.69 1496.14 1048.55 1507.33C1044.41 1518.52 1048.76 1531.08 1058.93 1537.32L1072 1516ZM1841.03 1638.87L1861.48 1624.49C1857.6 1618.96 1851.64 1615.24 1844.97 1614.18L1841.03 1638.87ZM2168.66 1147.42L2149.5 1131.36C2147.37 1133.9 2145.77 1136.84 2144.78 1140.01L2168.66 1147.42ZM2450.79 810.682L2475.44 814.82C2477.31 803.695 2471.5 792.698 2461.25 787.977C2451.01 783.256 2438.87 785.98 2431.63 794.626L2450.79 810.682ZM2341.58 1461.4L2365.54 1468.52C2365.83 1467.54 2366.06 1466.54 2366.23 1465.54L2341.58 1461.4ZM2740.02 1314.61L2720.18 1299.4C2718.57 1301.5 2717.3 1303.85 2716.43 1306.35L2740.02 1314.61ZM3312.19 568L3335.79 576.257C3339.84 564.663 3334.88 551.841 3324.07 546.004C3313.26 540.166 3299.82 543.044 3292.35 552.793L3312.19 568ZM3917.4 959.319L3937.61 974.033C3944.96 963.941 3943.74 949.977 3934.75 941.316C3925.76 932.655 3911.76 931.952 3901.95 939.668L3917.4 959.319ZM3144.45 2021.1L3124.24 2006.39C3122.72 2008.48 3121.53 2010.8 3120.71 2013.26L3144.45 2021.1ZM3305.21 2277.52L3288.02 2259.37C3286.97 2260.37 3286 2261.45 3285.14 2262.62L3305.21 2277.52ZM4166.95 1461.4L4184.14 1479.55C4193.27 1470.91 4194.56 1456.84 4187.16 1446.68C4179.76 1436.52 4165.97 1433.43 4154.95 1439.47L4166.95 1461.4ZM1603.7 3110.73L1585.07 3094.06L1580.04 3099.68L1578.96 3107.15L1603.7 3110.73ZM1525.34 3652.01L1500.6 3648.43L1500.09 3651.99L1500.6 3655.56L1525.34 3652.01ZM1626.61 4357.23L1601.86 4360.79L1602.83 4367.52L1607.08 4372.84L1626.61 4357.23ZM1876.15 4669.46L1856.62 4685.07L1864.12 4694.46H1876.15V4669.46ZM2739.03 4669.46V4694.46H2749.58L2756.94 4686.9L2739.03 4669.46ZM3095.87 4303.11L3113.78 4320.56L3119.84 4314.33L3120.74 4305.68L3095.87 4303.11ZM3166.29 3622.28L3191.15 3624.85L3191.56 3620.93L3190.74 3617.07L3166.29 3622.28ZM3034.35 3002.9L3058.8 2997.69L3056.85 2988.57L3049.41 2982.95L3034.35 3002.9ZM2658.53 3398.85L2666.26 3375.07L2663.69 3374.24L2661 3373.97L2658.53 3398.85ZM1525.73 3654.7L1500.98 3658.25H1500.98L1525.73 3654.7ZM2607.84 3857.54L2612.89 3833.05L2607.84 3857.54ZM1976.1 2714.37L1824.08 2191.59L1776.07 2205.55L1928.09 2728.33L1976.1 2714.37ZM1821.18 2185.17L1575.45 1798.38L1533.25 1825.19L1778.97 2211.98L1821.18 2185.17ZM1567.42 1790.47L1085.07 1494.69L1058.93 1537.32L1541.28 1833.1L1567.42 1790.47ZM1068.06 1540.69L1837.08 1663.55L1844.97 1614.18L1075.94 1491.32L1068.06 1540.69ZM1820.57 1653.24L1942.08 1826.16L1982.99 1797.41L1861.48 1624.49L1820.57 1653.24ZM1937.53 1811.5L1927.1 2721.06L1977.09 2721.64L1987.53 1812.07L1937.53 1811.5ZM1986.41 1819.19L2192.54 1154.82L2144.78 1140.01L1938.65 1804.37L1986.41 1819.19ZM2187.82 1163.47L2469.95 826.737L2431.63 794.626L2149.5 1131.36L2187.82 1163.47ZM2426.13 806.544L2316.92 1457.26L2366.23 1465.54L2475.44 814.82L2426.13 806.544ZM2317.61 1454.27L2073.96 2273.82L2121.89 2288.07L2365.54 1468.52L2317.61 1454.27ZM2074.19 2273.09L1928.36 2713.49L1975.83 2729.21L2121.66 2288.8L2074.19 2273.09ZM2419.94 2154.38L2071.28 2769.08L2114.77 2793.75L2463.43 2179.05L2419.94 2154.38ZM2465.28 2174.98L2763.62 1322.87L2716.43 1306.35L2418.09 2158.46L2465.28 2174.98ZM2759.87 1329.81L3332.03 583.207L3292.35 552.793L2720.18 1299.4L2759.87 1329.81ZM3288.59 559.743L2869.93 1756.27L2917.13 1772.78L3335.79 576.257L3288.59 559.743ZM2876.91 1745.85L2425.07 2148.05L2458.31 2185.39L2910.15 1783.2L2876.91 1745.85ZM2452.3 2814.78L2466.68 2167.27L2416.69 2166.16L2402.31 2813.67L2452.3 2814.78ZM2623.95 2851.72L2466.06 2161.15L2417.32 2172.29L2575.2 2862.86L2623.95 2851.72ZM2868.81 1760.82L2716.36 2777.71L2765.8 2785.12L2918.25 1768.23L2868.81 1760.82ZM2908.98 1784.17L3932.86 978.97L3901.95 939.668L2878.08 1744.87L2908.98 1784.17ZM3897.19 944.606L3124.24 2006.39L3164.66 2035.82L3937.61 974.033L3897.19 944.606ZM3120.71 2013.26L2839.06 2865.5L2886.54 2881.18L3168.19 2028.95L3120.71 2013.26ZM2882.87 2888.24L3325.28 2292.43L3285.14 2262.62L2842.73 2858.44L2882.87 2888.24ZM3322.4 2295.67L4184.14 1479.55L4149.76 1443.25L3288.02 2259.37L3322.4 2295.67ZM4154.95 1439.47L3132.45 1999.17L3156.46 2043.03L4178.95 1483.33L4154.95 1439.47ZM1970.85 2737.88L2450.91 2193.06L2413.39 2160L1933.34 2704.82L1970.85 2737.88ZM2450.07 2193.96L2459.61 2184.15L2423.76 2149.29L2414.22 2159.1L2450.07 2193.96ZM2105.38 2304.81L2439.6 2200.39L2424.69 2152.67L2090.47 2257.08L2105.38 2304.81ZM1933.46 2704.68L1585.07 3094.06L1622.33 3127.4L1970.73 2738.02L1933.46 2704.68ZM1578.96 3107.15L1500.6 3648.43L1550.09 3655.59L1628.45 3114.31L1578.96 3107.15ZM1607.08 4372.84L1856.62 4685.07L1895.68 4653.85L1646.14 4341.62L1607.08 4372.84ZM1876.15 4694.46H2739.03V4644.46H1876.15V4694.46ZM2756.94 4686.9L3113.78 4320.56L3077.96 4285.67L2721.12 4652.02L2756.94 4686.9ZM3120.74 4305.68L3191.15 3624.85L3141.42 3619.71L3071 4300.54L3120.74 4305.68ZM2729.27 2759.38L2587.76 2835.26L2611.39 2879.32L2752.89 2803.44L2729.27 2759.38ZM2605.64 2833.04L2433.37 2789.97L2421.24 2838.48L2593.51 2881.55L2605.64 2833.04ZM2416.73 2791.57L2232.16 2877.7L2253.31 2923.01L2437.88 2836.88L2416.73 2791.57ZM2258.29 2880.78L2108.58 2761.84L2077.47 2800.99L2227.18 2919.93L2258.29 2880.78ZM2102.83 2758.41L1961.9 2698.35L1942.29 2744.35L2083.22 2804.41L2102.83 2758.41ZM1927.32 2724.72L1973.91 3067.79L2023.46 3061.06L1976.87 2717.99L1927.32 2724.72ZM2022.4 3072.33L2116.74 2789.32L2069.31 2773.51L1974.97 3056.52L2022.4 3072.33ZM2228.79 2879.61L1984.74 3043.68L2012.64 3085.17L2256.68 2921.11L2228.79 2879.61ZM2435.21 3125.45L2619.78 2872.01L2579.37 2842.57L2394.79 3096.01L2435.21 3125.45ZM2402.33 2813.19L2390.02 3109.7L2439.98 3111.77L2452.28 2815.26L2402.33 2813.19ZM1987.35 3086.7L2217.04 3203.6L2239.72 3159.04L2010.03 3042.14L1987.35 3086.7ZM2250.36 3193.23L2449.29 2826.14L2405.33 2802.31L2206.4 3169.41L2250.36 3193.23ZM2253.35 3182.6L2267.7 2901.63L2217.77 2899.08L2203.41 3180.04L2253.35 3182.6ZM2406.16 3087.35L2219.53 3157.94L2237.22 3204.7L2423.85 3134.12L2406.16 3087.35ZM2698.36 3089.02L3038.79 3027.5L3029.9 2978.3L2689.47 3039.82L2698.36 3089.02ZM2598.05 2882.25L2861.28 2898.29L2864.32 2848.39L2601.1 2832.34L2598.05 2882.25ZM2844.07 2856.78L2675.18 3047.87L2712.64 3080.98L2881.53 2889.9L2844.07 2856.78ZM2576.82 2867.65L2671.16 3074.79L2716.66 3054.06L2622.33 2846.93L2576.82 2867.65ZM2419.1 3135.39L2698.01 3089.09L2689.82 3039.76L2410.91 3086.07L2419.1 3135.39ZM1995.78 3039.59L1600.79 3085.9L1606.61 3135.56L2001.6 3089.25L1995.78 3039.59ZM1983.68 3044.43L1693.86 3261.86L1723.86 3301.85L2013.69 3084.42L1983.68 3044.43ZM1686.46 3270.75L1502.95 3640.9L1547.74 3663.11L1731.26 3292.96L1686.46 3270.75ZM1582.4 3123.82L1687.56 3294.94L1730.16 3268.77L1625 3097.64L1582.4 3123.82ZM3190.74 3617.07L3150.38 3427.64L3101.48 3438.05L3141.83 3627.49L3190.74 3617.07ZM3150.38 3427.64L3058.8 2997.69L3009.89 3008.11L3101.48 3438.05L3150.38 3427.64ZM2693.36 3326.12L2871.96 3174.02L2839.54 3135.96L2660.95 3288.05L2693.36 3326.12ZM2871.96 3174.02L3050.55 3021.93L3018.14 2983.87L2839.54 3135.96L2871.96 3174.02ZM2867.96 3133.17L2706.12 3042.61L2681.7 3086.24L2843.54 3176.81L2867.96 3133.17ZM2668.97 3062.7L2652.21 3305.36L2702.1 3308.8L2718.85 3066.15L2668.97 3062.7ZM1713.61 3306.4L1973.37 3256.13L1963.87 3207.04L1704.11 3257.31L1713.61 3306.4ZM1973.37 3256.13L2233.13 3205.86L2223.63 3156.77L1963.87 3207.04L1973.37 3256.13ZM2837.83 3172.42L3108.01 3450.27L3143.86 3415.42L2873.67 3137.56L2837.83 3172.42ZM2210.39 3198.68L2397.02 3391.99L2432.99 3357.26L2246.36 3163.96L2210.39 3198.68ZM2421.24 3398.83L2683.39 3331.29L2670.92 3282.87L2408.76 3350.41L2421.24 3398.83ZM2440 3374.62V3110.73H2390V3374.62H2440ZM2675.32 3047.71L2396.41 3357.91L2433.59 3391.34L2712.5 3081.14L2675.32 3047.71ZM2660.99 3326.16L2848.32 3484.89L2880.65 3446.75L2693.32 3288.01L2660.99 3326.16ZM2867.61 3490.62L3129.06 3457.65L3122.8 3408.04L2861.36 3441.02L2867.61 3490.62ZM2889.48 3465.12L2880.74 3154.29L2830.76 3155.69L2839.49 3466.52L2889.48 3465.12ZM2650.8 3422.62L2856.75 3489.59L2872.22 3442.04L2666.26 3375.07L2650.8 3422.62ZM1953.53 3251.52L2151.5 3401.3L2181.66 3361.43L1983.7 3211.65L1953.53 3251.52ZM2167.26 3406.36L2415.68 3399.61L2414.32 3349.63L2165.9 3356.38L2167.26 3406.36ZM1836.24 3493.65L1515.62 3628.97L1535.06 3675.04L1855.68 3539.72L1836.24 3493.65ZM1687.27 3294.46L1824.37 3529.29L1867.55 3504.08L1730.45 3269.25L1687.27 3294.46ZM1945.65 3221.71L1823 3506.81L1868.93 3526.57L1991.58 3241.47L1945.65 3221.71ZM1993.22 3236.01L2023.29 3068.85L1974.08 3060L1944.01 3227.16L1993.22 3236.01ZM2150 3362.66L2021.07 3476.91L2054.23 3514.33L2183.16 3400.08L2150 3362.66ZM2034.92 3470.77L1843.23 3491.84L1848.69 3541.54L2040.38 3520.47L2034.92 3470.77ZM2029.41 3519.23L2244.18 3594.19L2260.66 3546.99L2045.89 3472.02L2029.41 3519.23ZM2275.19 3560.26L2189.35 3371.04L2143.81 3391.69L2229.65 3580.92L2275.19 3560.26ZM2395.76 3358.66L2233.18 3554.63L2271.66 3586.55L2434.24 3390.59L2395.76 3358.66ZM2248.3 3595.25L2517.77 3640.33L2526.02 3591.02L2256.55 3545.93L2248.3 3595.25ZM2544.75 3605.54L2437.86 3364.49L2392.15 3384.76L2499.05 3625.81L2544.75 3605.54ZM2412.53 3399.5L2650.16 3423.14L2655.11 3373.39L2417.48 3349.75L2412.53 3399.5ZM2650.16 3423.14L2656.05 3423.73L2661 3373.97L2655.11 3373.39L2650.16 3423.14ZM2631.21 3385.38L2500.47 3602.79L2543.32 3628.56L2674.06 3411.15L2631.21 3385.38ZM2854.47 3442.91L2511.88 3592.77L2531.92 3638.58L2874.5 3488.72L2854.47 3442.91ZM2518.82 3640.48L3036.5 3704.81L3042.66 3655.19L2524.98 3590.86L2518.82 3640.48ZM3058.94 3664.18L2883.84 3450L2845.13 3481.64L3020.23 3695.83L3058.94 3664.18ZM3102.33 3424.6L3015.98 3671.76L3063.18 3688.25L3149.53 3441.09L3102.33 3424.6ZM3049.95 3702.75L3176.65 3645.03L3155.92 3599.53L3029.22 3657.25L3049.95 3702.75ZM1824.01 3504.73L1667.19 3792.65L1711.1 3816.57L1867.92 3528.64L1824.01 3504.73ZM1705.74 3823.32L2054.23 3514.33L2021.06 3476.92L1672.56 3785.91L1705.74 3823.32ZM1706.19 3786.32L1542.38 3633.72L1508.3 3670.3L1672.11 3822.9L1706.19 3786.32ZM1693.69 3829.2L2075.11 3758.79L2066.04 3709.62L1684.61 3780.03L1693.69 3829.2ZM2095.34 3730.78L2062.41 3492.2L2012.88 3499.04L2045.81 3737.62L2095.34 3730.78ZM2087.29 3752.79L2269.14 3589.18L2235.7 3552.01L2053.85 3715.62L2087.29 3752.79ZM1651.15 4362L1703.05 4094.59L1653.96 4085.07L1602.06 4352.47L1651.15 4362ZM1703.05 4094.56L1703.06 4094.52L1653.96 4085.06L1653.96 4085.1L1703.05 4094.56ZM1703.49 4090.72L1714.13 3805.54L1664.17 3803.68L1653.53 4088.86L1703.49 4090.72ZM1500.6 3655.56L1500.98 3658.25L1550.48 3651.14L1550.09 3648.45L1500.6 3655.56ZM1500.98 3658.25L1601.86 4360.79L1651.35 4353.68L1550.48 3651.14L1500.98 3658.25ZM1702.1 4081.51L1549.32 3646.41L1502.14 3662.98L1654.92 4098.08L1702.1 4081.51ZM1655.84 4079.26C1655.36 4080.3 1654.48 4082.35 1653.95 4085.11C1653.49 4087.5 1652.71 4093.37 1655.67 4100.01L1701.34 4079.66C1704.29 4086.28 1703.51 4092.14 1703.06 4094.53C1702.53 4097.26 1701.66 4099.31 1701.19 4100.32L1655.84 4079.26ZM1655.7 4100.08C1661.07 4112.01 1672.28 4114.63 1677.63 4114.82C1682.26 4114.99 1685.75 4113.79 1686.71 4113.46L1670.39 4066.2C1671.32 4065.88 1674.79 4064.69 1679.41 4064.85C1681.93 4064.94 1685.99 4065.47 1690.35 4067.82C1695.13 4070.39 1699.02 4074.49 1701.31 4079.58L1655.7 4100.08ZM1686.63 4113.49C1688.66 4112.8 1690.14 4111.99 1690.57 4111.76L1666.68 4067.84C1666.97 4067.68 1667.41 4067.44 1667.97 4067.19C1668.49 4066.94 1669.36 4066.55 1670.48 4066.17L1686.63 4113.49ZM1690.59 4111.75C1692.72 4110.59 1694.51 4109.16 1694.61 4109.09L1664.22 4069.39C1664.16 4069.43 1664.27 4069.35 1664.49 4069.19C1664.6 4069.11 1664.82 4068.96 1665.11 4068.77C1665.36 4068.61 1665.91 4068.26 1666.66 4067.85L1690.59 4111.75ZM1694.61 4109.09C1704.63 4101.42 1780.17 4035.04 1863.54 3960.14C1947.35 3884.85 2041.16 3799.09 2088.27 3751.86L2052.87 3716.55C2006.89 3762.64 1914.12 3847.5 1830.13 3922.95C1745.71 3998.78 1672.22 4063.26 1664.22 4069.39L1694.61 4109.09ZM2374.23 3794.89L2275.45 3560.87L2229.39 3580.31L2328.16 3814.33L2374.23 3794.89ZM2503.35 3598.91L2332.65 3787.85L2369.75 3821.37L2540.45 3632.43L2503.35 3598.91ZM2064.49 3758.45L2345.11 3828.86L2357.28 3780.36L2076.66 3709.95L2064.49 3758.45ZM2355.65 3829.21L3044.03 3704.6L3035.13 3655.4L2346.74 3780.01L2355.65 3829.21ZM2884.39 3925.59L3059.49 3695.13L3019.68 3664.88L2844.58 3895.34L2884.39 3925.59ZM3117.41 4290.42L2886.02 3897.78L2842.95 3923.16L3074.33 4315.8L3117.41 4290.42ZM3145 3609.17L2995.51 3851.88L3038.08 3878.11L3187.57 3635.39L3145 3609.17ZM3009.64 3841.04L2857.33 3886.51L2871.64 3934.42L3023.94 3888.95L3009.64 3841.04ZM2992.19 3869.44L3071.27 4307.55L3120.47 4298.67L3041.39 3860.55L2992.19 3869.44ZM1691.58 4111.1L1692.48 4110.55L1666.35 4067.93L1665.44 4068.48L1691.58 4111.1ZM1692.48 4110.55L2105.42 3857.33L2079.29 3814.7L1666.35 4067.93L1692.48 4110.55ZM2095.37 3860.83L2354.21 3829.43L2348.18 3779.79L2089.34 3811.2L2095.37 3860.83ZM2116.8 3830.79L2095.02 3728.97L2046.13 3739.43L2067.91 3841.25L2116.8 3830.79ZM2069.82 3825.19L1940.15 4095.18L1985.22 4116.83L2114.89 3846.84L2069.82 3825.19ZM1978 4125.76L2366.52 3824.36L2335.87 3784.86L1947.36 4086.25L1978 4125.76ZM1952.35 4083.24L1765.94 4167.83L1786.61 4213.36L1973.01 4128.77L1952.35 4083.24ZM1794.22 4173.19L1696.5 4072.43L1660.6 4107.24L1758.33 4208L1794.22 4173.19ZM1696.5 4072.43L1696.46 4072.39L1660.56 4107.19L1660.6 4107.23L1696.5 4072.43ZM1964.1 4081.04L1680.05 4064.84L1677.2 4114.76L1961.26 4130.96L1964.1 4081.04ZM1680.05 4064.84L1679.94 4064.83L1677.08 4114.75L1677.19 4114.76L1680.05 4064.84ZM1757.67 4173.89L1608.01 4340.53L1645.21 4373.94L1794.87 4207.3L1757.67 4173.89ZM1751.8 4195.7L1851.67 4674.56L1900.62 4664.36L1800.75 4185.49L1751.8 4195.7ZM3049.41 2982.95L2877.87 2853.39L2847.73 2893.29L3019.28 3022.85L3049.41 2982.95ZM2877.87 2853.39L2756.15 2761.46L2726.01 2801.36L2847.73 2893.29L2877.87 2853.39ZM2346.15 3829.1L2602.79 3882.02L2612.89 3833.05L2356.25 3780.13L2346.15 3829.1ZM2602.79 3882.02L2859.44 3934.95L2869.53 3885.98L2612.89 3833.05L2602.79 3882.02ZM2444.17 4045.61L2375.28 3797.91L2327.11 3811.31L2396 4059.01L2444.17 4045.61ZM2589.84 3840.19L2402.09 4034.96L2438.08 4069.66L2625.84 3874.89L2589.84 3840.19ZM2856.88 3886.65L2412.48 4028.49L2427.69 4076.12L2872.09 3934.28L2856.88 3886.65ZM2410.6 4075.44L2828.99 4247.08L2847.97 4200.82L2429.57 4029.18L2410.6 4075.44ZM2831.13 4247.84L3088.52 4327.01L3103.22 4279.22L2845.83 4200.05L2831.13 4247.84ZM2763.43 4674.91L2862.88 4229.39L2814.08 4218.5L2714.63 4664.01L2763.43 4674.91ZM2760.94 4657.42L2629.75 4418.65L2585.93 4442.73L2717.12 4681.5L2760.94 4657.42ZM2630.23 4419.58L2442.48 4041.2L2397.69 4063.42L2585.45 4441.81L2630.23 4419.58ZM2821.79 4205.33L2591.15 4412.08L2624.53 4449.31L2855.17 4242.56L2821.79 4205.33ZM2863.39 4226.01L2889.4 3912.53L2839.57 3908.4L2813.56 4221.88L2863.39 4226.01ZM2329.28 3792.58L2055.47 4291.08L2099.29 4315.15L2373.11 3816.65L2329.28 3792.58ZM2055.47 4291.08L1854.24 4657.42L1898.06 4681.5L2099.29 4315.15L2055.47 4291.08ZM1941.07 4118.58L2055.77 4315.69L2098.98 4290.54L1984.29 4093.43L1941.07 4118.58ZM1767.52 4214.01L2068.63 4326.53L2086.13 4279.69L1785.03 4167.18L1767.52 4214.01ZM2092.14 4323.29L2434.85 4072.48L2405.32 4032.13L2062.61 4282.94L2092.14 4323.29ZM2399.54 4038.07L2163.21 4379.08L2204.31 4407.56L2440.63 4066.55L2399.54 4038.07ZM2167.06 4374.72L1859.45 4650.86L1892.85 4688.06L2200.46 4411.93L2167.06 4374.72ZM2181.56 4418.23L2605.65 4455.6L2610.03 4405.79L2185.95 4368.42L2181.56 4418.23ZM2601.71 4406.46L2235.87 4498.95L2248.12 4547.43L2613.97 4454.93L2601.71 4406.46ZM2232.71 4499.97L1866.87 4646.25L1885.43 4692.67L2251.28 4546.4L2232.71 4499.97ZM2234.94 4547.17L2731.97 4693.44L2746.09 4645.48L2249.05 4499.21L2234.94 4547.17ZM2264.81 4512.96L2206.57 4383.1L2160.95 4403.55L2219.18 4533.42L2264.81 4512.96ZM2061.21 4322.18L2167.59 4412.39L2199.93 4374.26L2093.55 4284.04L2061.21 4322.18Z" fill="white"/>
</g>
<defs>
<linearGradient id="paint0_linear_5559_8113" x1="5238" y1="0" x2="-0.000312209" y2="5238" gradientUnits="userSpaceOnUse">
<stop offset="0.181887" stop-color="#424242"/>
<stop offset="0.816473" stop-color="#8D8D8D"/>
</linearGradient>
<clipPath id="clip0_5559_8113">
<rect width="5238" height="5238" rx="2619" fill="white"/>
</clipPath>
</defs>
</svg>
