<svg width="5238" height="5238" viewBox="0 0 5238 5238" fill="none" xmlns="http://www.w3.org/2000/svg">
<g clip-path="url(#clip0_4176_7866)">
<rect width="5238" height="5238" rx="2619" fill="url(#paint0_linear_4176_7866)"/>
<g filter="url(#filter0_di_4176_7866)">
<path d="M1940.06 2682.17L1916.06 2689.17L1928.08 2730.35L1957.99 2699.6L1940.06 2682.17ZM1799.1 2199.11L1823.1 2192.11C1822.44 2189.85 1821.46 2187.69 1820.2 2185.7L1799.1 2199.11ZM1553.37 1812.32L1574.47 1798.91C1572.43 1795.7 1569.69 1793 1566.44 1791.01L1553.37 1812.32ZM1071.02 1516.54L1074.97 1491.85C1063.19 1489.97 1051.71 1496.68 1047.58 1507.87C1043.44 1519.06 1047.78 1531.62 1057.95 1537.85L1071.02 1516.54ZM1840.05 1639.4L1860.51 1625.03C1856.62 1619.5 1850.67 1615.78 1843.99 1614.72L1840.05 1639.4ZM2167.68 1147.95L2148.52 1131.9C2146.39 1134.44 2144.79 1137.38 2143.81 1140.54L2167.68 1147.95ZM2449.81 811.219L2474.47 815.357C2476.33 804.232 2470.52 793.235 2460.28 788.514C2450.03 783.793 2437.89 786.517 2430.65 795.163L2449.81 811.219ZM2340.6 1461.93L2364.56 1469.06C2364.86 1468.08 2365.09 1467.08 2365.26 1466.07L2340.6 1461.93ZM2739.05 1315.14L2719.2 1299.94C2717.59 1302.04 2716.33 1304.38 2715.45 1306.88L2739.05 1315.14ZM3311.21 568.537L3334.81 576.794C3338.87 565.2 3333.9 552.378 3323.09 546.541C3312.29 540.704 3298.84 543.581 3291.37 553.33L3311.21 568.537ZM3916.42 959.856L3936.64 974.57C3943.98 964.478 3942.76 950.514 3933.77 941.853C3924.78 933.193 3910.78 932.489 3900.97 940.205L3916.42 959.856ZM3143.47 2021.64L3123.26 2006.93C3121.75 2009 3120.57 2011.3 3119.76 2013.74L3143.47 2021.64ZM2865.81 2854.76L2842.09 2846.86L2885.71 2869.89L2865.81 2854.76ZM3304.23 2278.06L3287.04 2259.91C3286.06 2260.84 3285.15 2261.85 3284.33 2262.93L3304.23 2278.06ZM4165.97 1461.93L4183.16 1480.09C4192.29 1471.45 4193.58 1457.37 4186.18 1447.22C4178.78 1437.06 4164.99 1433.97 4153.97 1440.01L4165.97 1461.93ZM2431.17 2177.07L2449.1 2194.5L2449.1 2194.5L2431.17 2177.07ZM1964.06 2675.17L1823.1 2192.11L1775.1 2206.11L1916.06 2689.17L1964.06 2675.17ZM1820.2 2185.7L1574.47 1798.91L1532.27 1825.73L1778 2212.52L1820.2 2185.7ZM1566.44 1791.01L1084.09 1495.23L1057.95 1537.85L1540.3 1833.63L1566.44 1791.01ZM1067.08 1541.23L1836.11 1664.09L1843.99 1614.72L1074.97 1491.85L1067.08 1541.23ZM1819.6 1653.78L1941.1 1826.69L1982.01 1797.95L1860.51 1625.03L1819.6 1653.78ZM1936.56 1811.7L1915.07 2681.55L1965.05 2682.79L1986.55 1812.94L1936.56 1811.7ZM1985.43 1819.73L2191.56 1155.36L2143.81 1140.54L1937.68 1804.91L1985.43 1819.73ZM2186.85 1164.01L2468.98 827.274L2430.65 795.163L2148.52 1131.9L2186.85 1164.01ZM2425.16 807.081L2315.95 1457.8L2365.26 1466.07L2474.47 815.357L2425.16 807.081ZM2316.64 1454.81L2072.99 2274.36L2120.91 2288.61L2364.56 1469.06L2316.64 1454.81ZM2073.67 2272.37L1916.78 2673.05L1963.34 2691.28L2120.23 2290.6L2073.67 2272.37ZM2418.97 2154.91L2077.33 2756.21L2120.8 2780.91L2462.45 2179.61L2418.97 2154.91ZM2464.31 2175.52L2762.64 1323.41L2715.45 1306.88L2417.12 2159L2464.31 2175.52ZM2758.89 1330.35L3331.06 583.744L3291.37 553.33L2719.2 1299.94L2758.89 1330.35ZM3287.62 560.281L2868.96 1756.8L2916.15 1773.32L3334.81 576.794L3287.62 560.281ZM2875.93 1746.39L2424.09 2148.58L2457.33 2185.93L2909.18 1783.73L2875.93 1746.39ZM2456.17 2802.52L2465.71 2167.63L2415.71 2166.88L2406.17 2801.76L2456.17 2802.52ZM2626.44 2831.79L2465.02 2161.4L2416.41 2173.11L2577.82 2843.5L2626.44 2831.79ZM2867.81 1761.48L2721.34 2773.57L2770.82 2780.74L2917.3 1768.64L2867.81 1761.48ZM2908.01 1784.71L3931.88 979.508L3900.97 940.205L2877.1 1745.41L2908.01 1784.71ZM3896.21 945.143L3123.26 2006.93L3163.69 2036.35L3936.64 974.57L3896.21 945.143ZM3119.76 2013.74L2842.09 2846.86L2889.53 2862.67L3167.19 2029.55L3119.76 2013.74ZM2885.71 2869.89L3324.14 2293.19L3284.33 2262.93L2845.91 2839.63L2885.71 2869.89ZM3321.43 2296.21L4183.16 1480.09L4148.78 1443.78L3287.04 2259.91L3321.43 2296.21ZM4153.97 1440.01L3131.47 1999.71L3155.48 2043.57L4177.98 1483.86L4153.97 1440.01ZM1957.99 2699.6L2449.1 2194.5L2413.25 2159.64L1922.14 2664.74L1957.99 2699.6ZM2449.1 2194.5L2458.64 2184.68L2422.79 2149.83L2413.25 2159.64L2449.1 2194.5ZM2104.41 2305.34L2438.63 2200.93L2423.72 2153.21L2089.5 2257.62L2104.41 2305.34Z" fill="white"/>
<path d="M1951.12 2721.89L1602.73 3111.27M1951.12 2721.89L2092.05 2781.95M1951.12 2721.89L1997.71 3064.96M1602.73 3111.27L1524.37 3652.55M1602.73 3111.27L1997.71 3064.96M1602.73 3111.27L1707.88 3282.39M1524.37 3652.55L1707.88 3282.39M1524.37 3652.55L1844.99 3517.23M1524.37 3652.55L1688.17 3805.15M1524.37 3652.55L1524.75 3655.23M1625.63 4357.77L1875.17 4670M1625.63 4357.77L1677.54 4090.33M1625.63 4357.77L1524.75 3655.23M1625.63 4357.77L1775.3 4191.13M1875.17 4670H2738.05M1875.17 4670L1775.3 4191.13M1875.17 4670L2076.4 4303.65M1875.17 4670L2182.78 4393.86M1875.17 4670L2241.02 4523.73M2738.05 4670L3094.89 4303.65M2738.05 4670L2837.5 4224.49M2738.05 4670L2606.86 4431.23M2738.05 4670L2241.02 4523.73M3094.89 4303.65L3165.31 3622.82M3094.89 4303.65L2863.51 3911.01M3094.89 4303.65L3015.82 3865.53M3094.89 4303.65L2837.5 4224.49M3165.31 3622.82L3124.96 3433.38M3165.31 3622.82L3038.61 3680.54M3165.31 3622.82L3015.82 3865.53M3033.37 3003.44L2692.94 3064.96M3033.37 3003.44L3124.96 3433.38M3033.37 3003.44L2854.77 3155.53M3033.37 3003.44L2861.82 2873.88M2598.6 2857.83L2740.1 2781.95L2861.82 2873.88M2598.6 2857.83L2426.33 2814.76M2598.6 2857.83L2414.03 3111.27M2598.6 2857.83L2861.82 2873.88M2598.6 2857.83L2692.94 3064.96M2426.33 2814.76L2241.76 2900.9M2426.33 2814.76L2414.03 3111.27M2426.33 2814.76L2227.4 3181.86M2241.76 2900.9L2092.05 2781.95M2241.76 2900.9L1997.71 3064.96M2241.76 2900.9L2227.4 3181.86M2092.05 2781.95L1997.71 3064.96M1997.71 3064.96L2227.4 3181.86M1997.71 3064.96L1707.88 3282.39M1997.71 3064.96L1967.64 3232.13M2414.03 3111.27L2227.4 3181.86M2414.03 3111.27L2692.94 3064.96M2414.03 3111.27V3375.16M2227.4 3181.86L1967.64 3232.13M2227.4 3181.86L2414.03 3375.16M2692.94 3064.96L2861.82 2873.88M2692.94 3064.96L2854.77 3155.53M2692.94 3064.96L2676.18 3307.62M2692.94 3064.96L2414.03 3375.16M1707.88 3282.39L1967.64 3232.13M1707.88 3282.39L1844.99 3517.23M3124.96 3433.38L2854.77 3155.53M3124.96 3433.38L2863.51 3466.36M3124.96 3433.38L3038.61 3680.54M2676.18 3307.62L2854.77 3155.53M2676.18 3307.62L2414.03 3375.16M2676.18 3307.62L2863.51 3466.36M2854.77 3155.53L2863.51 3466.36M1967.64 3232.13L2165.6 3381.91M1967.64 3232.13L1844.99 3517.23M2414.03 3375.16L2165.6 3381.91M2414.03 3375.16L2251.44 3571.13M2414.03 3375.16L2520.92 3616.21M2414.03 3375.16L2651.66 3398.8M2863.51 3466.36L2657.55 3399.39L2651.66 3398.8M2863.51 3466.36L2520.92 3616.21M2863.51 3466.36L3038.61 3680.54M2165.6 3381.91L2036.67 3496.16M2165.6 3381.91L2251.44 3571.13M1844.99 3517.23L2036.67 3496.16M1844.99 3517.23L1688.17 3805.15M2036.67 3496.16L2251.44 3571.13M2036.67 3496.16L1688.17 3805.15M2036.67 3496.16L2069.6 3734.74M2251.44 3571.13L2520.92 3616.21M2251.44 3571.13L2069.6 3734.74M2251.44 3571.13L2350.22 3805.15M2520.92 3616.21L2651.66 3398.8M2520.92 3616.21L3038.61 3680.54M2520.92 3616.21L2350.22 3805.15M3038.61 3680.54L2350.22 3805.15M3038.61 3680.54L2863.51 3911.01M1688.17 3805.15L2069.6 3734.74M1688.17 3805.15L1677.54 4090.33M2069.6 3734.74C1973.08 3831.49 1675.66 4094.38 1677.54 4090.33M2069.6 3734.74L2350.22 3805.15M2069.6 3734.74L2091.38 3836.56M1677.54 4090.33L1524.75 3655.23M1677.54 4090.33L2091.38 3836.56M1677.54 4090.33L1775.3 4191.13M1677.54 4090.33L1961.7 4106.54M2350.22 3805.15L2091.38 3836.56M2350.22 3805.15L1961.7 4106.54M2350.22 3805.15L2606.86 3858.08M2350.22 3805.15L2419.11 4052.85M2350.22 3805.15L2076.4 4303.65M2863.51 3911.01L3015.82 3865.53M2863.51 3911.01L2606.86 3858.08M2863.51 3911.01L2419.11 4052.85M2863.51 3911.01L2837.5 4224.49M2091.38 3836.56L1961.7 4106.54M1961.7 4106.54L1775.3 4191.13M1961.7 4106.54L2076.4 4303.65M1775.3 4191.13L2076.4 4303.65M2606.86 3858.08L2419.11 4052.85M2419.11 4052.85L2837.5 4224.49M2419.11 4052.85L2606.86 4431.23M2419.11 4052.85L2076.4 4303.65M2419.11 4052.85L2182.78 4393.86M2837.5 4224.49L2606.86 4431.23M2606.86 4431.23L2182.78 4393.86M2606.86 4431.23L2241.02 4523.73M2076.4 4303.65L2182.78 4393.86M2182.78 4393.86L2241.02 4523.73" stroke="white" stroke-width="50"/>
</g>
</g>
<defs>
<filter id="filter0_di_4176_7866" x="992.31" y="489.825" width="3359.79" height="4366.3" filterUnits="userSpaceOnUse" color-interpolation-filters="sRGB">
<feFlood flood-opacity="0" result="BackgroundImageFix"/>
<feColorMatrix in="SourceAlpha" type="matrix" values="0 0 0 0 0 0 0 0 0 0 0 0 0 0 0 0 0 0 127 0" result="hardAlpha"/>
<feOffset dx="53.71" dy="53.71"/>
<feGaussianBlur stdDeviation="53.71"/>
<feColorMatrix type="matrix" values="0 0 0 0 0.360784 0 0 0 0 0.360784 0 0 0 0 0.360784 0 0 0 0.2 0"/>
<feBlend mode="normal" in2="BackgroundImageFix" result="effect1_dropShadow_4176_7866"/>
<feBlend mode="normal" in="SourceGraphic" in2="effect1_dropShadow_4176_7866" result="shape"/>
<feColorMatrix in="SourceAlpha" type="matrix" values="0 0 0 0 0 0 0 0 0 0 0 0 0 0 0 0 0 0 127 0" result="hardAlpha"/>
<feOffset dx="26.86" dy="26.86"/>
<feGaussianBlur stdDeviation="26.855"/>
<feComposite in2="hardAlpha" operator="arithmetic" k2="-1" k3="1"/>
<feColorMatrix type="matrix" values="0 0 0 0 0.976471 0 0 0 0 0.976471 0 0 0 0 0.976471 0 0 0 0.25 0"/>
<feBlend mode="normal" in2="shape" result="effect2_innerShadow_4176_7866"/>
</filter>
<linearGradient id="paint0_linear_4176_7866" x1="5238" y1="0" x2="-0.000312209" y2="5238" gradientUnits="userSpaceOnUse">
<stop offset="0.181887" stop-color="#F2D478"/>
<stop offset="0.816473" stop-color="#EDC575"/>
</linearGradient>
<clipPath id="clip0_4176_7866">
<rect width="5238" height="5238" rx="2619" fill="white"/>
</clipPath>
</defs>
</svg>
